<?xml version="1.0" encoding="UTF-8" standalone="no"?>
<!DOCTYPE svg PUBLIC "-//W3C//DTD SVG 1.1//EN"
 "http://www.w3.org/Graphics/SVG/1.1/DTD/svg11.dtd">
<!-- Generated by graphviz version 2.30.1 (20130403.1333)
 -->
<!-- Title: controllers_diagram Pages: 1 -->
<svg width="976pt" height="544pt"
 viewBox="0.00 0.00 975.69 544.00" xmlns="http://www.w3.org/2000/svg" xmlns:xlink="http://www.w3.org/1999/xlink">
<g id="graph0" class="graph" transform="scale(1 1) rotate(0) translate(4 540)">
<title>controllers_diagram</title>
<polygon fill="white" stroke="white" points="-4,5 -4,-540 972.692,-540 972.692,5 -4,5"/>
<!-- _diagram_info -->
<g id="node1" class="node"><title>_diagram_info</title>
<text text-anchor="start" x="758" y="-519" font-family="Times,serif" font-size="13.00">Controllers diagram</text>
<text text-anchor="start" x="758" y="-503.4" font-family="Times,serif" font-size="13.00">Date: May 17 2013 &#45; 11:28</text>
<text text-anchor="start" x="758" y="-487.8" font-family="Times,serif" font-size="13.00">Migration version: 20130505091409</text>
<text text-anchor="start" x="758" y="-472.2" font-family="Times,serif" font-size="13.00">Generated by RailRoady 1.1.0</text>
<text text-anchor="start" x="758" y="-456.6" font-family="Times,serif" font-size="13.00">http://railroady.prestonlee.com</text>
</g>
<!-- AgreementsController -->
<g id="node2" class="node"><title>AgreementsController</title>
<ellipse fill="none" stroke="black" cx="127.706" cy="-201.154" rx="97.2759" ry="18"/>
<text text-anchor="middle" x="127.706" y="-195.554" font-family="Times,serif" font-size="14.00">AgreementsController</text>
</g>
<!-- ApplicationController -->
<g id="node3" class="node"><title>ApplicationController</title>
<ellipse fill="none" stroke="black" cx="430.617" cy="-207.519" rx="96.1448" ry="18"/>
<text text-anchor="middle" x="430.617" y="-201.919" font-family="Times,serif" font-size="14.00">ApplicationController</text>
</g>
<!-- ApplicationController&#45;&gt;AgreementsController -->
<g id="edge1" class="edge"><title>ApplicationController&#45;&gt;AgreementsController</title>
<path fill="none" stroke="black" d="M334.774,-205.505C299.589,-204.765 259.753,-203.928 224.486,-203.187"/>
</g>
<!-- ClientsController -->
<g id="node4" class="node"><title>ClientsController</title>
<ellipse fill="none" stroke="black" cx="453.85" cy="-18" rx="78.1858" ry="18"/>
<text text-anchor="middle" x="453.85" y="-12.4" font-family="Times,serif" font-size="14.00">ClientsController</text>
</g>
<!-- ApplicationController&#45;&gt;ClientsController -->
<g id="edge2" class="edge"><title>ApplicationController&#45;&gt;ClientsController</title>
<path fill="none" stroke="black" d="M432.845,-189.347C437.285,-153.122 447.194,-72.2964 451.629,-36.1168"/>
</g>
<!-- FileImportsController -->
<g id="node5" class="node"><title>FileImportsController</title>
<ellipse fill="none" stroke="black" cx="499.509" cy="-372.254" rx="95.5887" ry="18"/>
<text text-anchor="middle" x="499.509" y="-366.654" font-family="Times,serif" font-size="14.00">FileImportsController</text>
</g>
<!-- ApplicationController&#45;&gt;FileImportsController -->
<g id="edge3" class="edge"><title>ApplicationController&#45;&gt;FileImportsController</title>
<path fill="none" stroke="black" d="M438.253,-225.778C451.531,-257.527 478.716,-322.534 491.944,-354.165"/>
</g>
<!-- PricesController -->
<g id="node6" class="node"><title>PricesController</title>
<ellipse fill="none" stroke="black" cx="647.823" cy="-305.141" rx="74.1605" ry="18"/>
<text text-anchor="middle" x="647.823" y="-299.541" font-family="Times,serif" font-size="14.00">PricesController</text>
</g>
<!-- ApplicationController&#45;&gt;PricesController -->
<g id="edge4" class="edge"><title>ApplicationController&#45;&gt;PricesController</title>
<path fill="none" stroke="black" d="M467.956,-224.301C508.468,-242.509 572.667,-271.363 612.409,-289.225"/>
</g>
<!-- ProductAttributesController -->
<g id="node7" class="node"><title>ProductAttributesController</title>
<ellipse fill="none" stroke="black" cx="317.839" cy="-339.683" rx="119.289" ry="18"/>
<text text-anchor="middle" x="317.839" y="-334.083" font-family="Times,serif" font-size="14.00">ProductAttributesController</text>
</g>
<!-- ApplicationController&#45;&gt;ProductAttributesController -->
<g id="edge5" class="edge"><title>ApplicationController&#45;&gt;ProductAttributesController</title>
<path fill="none" stroke="black" d="M415.407,-225.343C393.883,-250.568 354.757,-296.419 333.168,-321.719"/>
</g>
<!-- ProductsController -->
<g id="node8" class="node"><title>ProductsController</title>
<ellipse fill="none" stroke="black" cx="301.103" cy="-75.1711" rx="84.5585" ry="18"/>
<text text-anchor="middle" x="301.103" y="-69.5711" font-family="Times,serif" font-size="14.00">ProductsController</text>
</g>
<!-- ApplicationController&#45;&gt;ProductsController -->
<g id="edge6" class="edge"><title>ApplicationController&#45;&gt;ProductsController</title>
<path fill="none" stroke="black" d="M413.15,-189.67C388.432,-164.41 343.5,-118.495 318.706,-93.16"/>
</g>
<!-- PurchasingSystemsController -->
<g id="node9" class="node"><title>PurchasingSystemsController</title>
<ellipse fill="none" stroke="black" cx="841.852" cy="-84.9507" rx="125.68" ry="18"/>
<text text-anchor="middle" x="841.852" y="-79.3507" font-family="Times,serif" font-size="14.00">PurchasingSystemsController</text>
</g>
<!-- ApplicationController&#45;&gt;PurchasingSystemsController -->
<g id="edge7" class="edge"><title>ApplicationController&#45;&gt;PurchasingSystemsController</title>
<path fill="none" stroke="black" d="M491.904,-193.531C531.745,-184.091 584.692,-170.896 630.933,-157.194 688.456,-140.15 753.643,-117.261 796.127,-101.854"/>
</g>
<!-- SearchAuditsController -->
<g id="node10" class="node"><title>SearchAuditsController</title>
<ellipse fill="none" stroke="black" cx="110.157" cy="-33.1682" rx="102.518" ry="18"/>
<text text-anchor="middle" x="110.157" y="-27.5682" font-family="Times,serif" font-size="14.00">SearchAuditsController</text>
</g>
<!-- ApplicationController&#45;&gt;SearchAuditsController -->
<g id="edge8" class="edge"><title>ApplicationController&#45;&gt;SearchAuditsController</title>
<path fill="none" stroke="black" d="M399.307,-190.484C338.2,-157.238 203.655,-84.0371 142.069,-50.5306"/>
</g>
<!-- SearchController -->
<g id="node11" class="node"><title>SearchController</title>
<ellipse fill="none" stroke="black" cx="664.271" cy="-29.8843" rx="77.0072" ry="18"/>
<text text-anchor="middle" x="664.271" y="-24.2843" font-family="Times,serif" font-size="14.00">SearchController</text>
</g>
<!-- ApplicationController&#45;&gt;SearchController -->
<g id="edge9" class="edge"><title>ApplicationController&#45;&gt;SearchController</title>
<path fill="none" stroke="black" d="M441.687,-189.452C450.695,-175.715 464.344,-156.921 479.394,-143.296 526.012,-101.093 590.483,-65.6888 629.676,-46.1731"/>
</g>
<!-- SuppliersController -->
<g id="node12" class="node"><title>SuppliersController</title>
<ellipse fill="none" stroke="black" cx="568.207" cy="-143.319" rx="87.425" ry="18"/>
<text text-anchor="middle" x="568.207" y="-137.719" font-family="Times,serif" font-size="14.00">SuppliersController</text>
</g>
<!-- ApplicationController&#45;&gt;SuppliersController -->
<g id="edge10" class="edge"><title>ApplicationController&#45;&gt;SuppliersController</title>
<path fill="none" stroke="black" d="M466.767,-190.651C487.15,-181.14 512.51,-169.307 532.774,-159.852"/>
</g>
<!-- SystemVersionsController -->
<g id="node13" class="node"><title>SystemVersionsController</title>
<ellipse fill="none" stroke="black" cx="112.43" cy="-362.964" rx="112.359" ry="18"/>
<text text-anchor="middle" x="112.43" y="-357.364" font-family="Times,serif" font-size="14.00">SystemVersionsController</text>
</g>
<!-- ApplicationController&#45;&gt;SystemVersionsController -->
<g id="edge11" class="edge"><title>ApplicationController&#45;&gt;SystemVersionsController</title>
<path fill="none" stroke="black" d="M395.96,-224.45C334.915,-254.272 208.886,-315.842 147.529,-345.817"/>
</g>
<!-- UsersController -->
<g id="node14" class="node"><title>UsersController</title>
<ellipse fill="none" stroke="black" cx="830.077" cy="-335.216" rx="72.9449" ry="18"/>
<text text-anchor="middle" x="830.077" y="-329.616" font-family="Times,serif" font-size="14.00">UsersController</text>
</g>
<!-- ApplicationController&#45;&gt;UsersController -->
<g id="edge12" class="edge"><title>ApplicationController&#45;&gt;UsersController</title>
<path fill="none" stroke="black" d="M481.757,-222.834C536.398,-239.313 625.481,-266.511 701.885,-291.378 730.737,-300.769 763.063,-311.827 788.034,-320.487"/>
</g>
</g>
</svg>
