<?xml version="1.0" encoding="UTF-8" standalone="no"?>
<!DOCTYPE svg PUBLIC "-//W3C//DTD SVG 1.1//EN"
 "http://www.w3.org/Graphics/SVG/1.1/DTD/svg11.dtd">
<!-- Generated by graphviz version 2.30.1 (20130403.1333)
 -->
<!-- Title: controllers_diagram Pages: 1 -->
<svg width="1223pt" height="1183pt"
 viewBox="0.00 0.00 1223.38 1182.74" xmlns="http://www.w3.org/2000/svg" xmlns:xlink="http://www.w3.org/1999/xlink">
<g id="graph0" class="graph" transform="scale(1 1) rotate(0) translate(4 1178.74)">
<title>controllers_diagram</title>
<polygon fill="white" stroke="white" points="-4,5 -4,-1178.74 1220.38,-1178.74 1220.38,5 -4,5"/>
<!-- _diagram_info -->
<g id="node1" class="node"><title>_diagram_info</title>
<text text-anchor="start" x="1016" y="-825" font-family="Times,serif" font-size="13.00">Controllers diagram</text>
<text text-anchor="start" x="1016" y="-809.4" font-family="Times,serif" font-size="13.00">Date: May 17 2013 &#45; 11:28</text>
<text text-anchor="start" x="1016" y="-793.8" font-family="Times,serif" font-size="13.00">Migration version: 20130505091409</text>
<text text-anchor="start" x="1016" y="-778.2" font-family="Times,serif" font-size="13.00">Generated by RailRoady 1.1.0</text>
<text text-anchor="start" x="1016" y="-762.6" font-family="Times,serif" font-size="13.00">http://railroady.prestonlee.com</text>
</g>
<!-- AgreementsController -->
<g id="node2" class="node"><title>AgreementsController</title>
<path fill="none" stroke="black" d="M12,-618.676C12,-618.676 197.122,-618.676 197.122,-618.676 203.122,-618.676 209.122,-624.676 209.122,-630.676 209.122,-630.676 209.122,-873.076 209.122,-873.076 209.122,-879.076 203.122,-885.076 197.122,-885.076 197.122,-885.076 12,-885.076 12,-885.076 6,-885.076 -5.68434e-14,-879.076 -5.68434e-14,-873.076 -5.68434e-14,-873.076 -5.68434e-14,-630.676 -5.68434e-14,-630.676 -5.68434e-14,-624.676 6,-618.676 12,-618.676"/>
<text text-anchor="middle" x="104.561" y="-867.076" font-family="Times,serif" font-size="14.00">AgreementsController</text>
<polyline fill="none" stroke="black" points="-5.68434e-14,-860.276 209.122,-860.276 "/>
<text text-anchor="start" x="8" y="-842.276" font-family="Times,serif" font-size="14.00">_callback_before_115</text>
<text text-anchor="start" x="8" y="-825.476" font-family="Times,serif" font-size="14.00">_one_time_conditions_valid_116?</text>
<text text-anchor="start" x="8" y="-808.676" font-family="Times,serif" font-size="14.00">create</text>
<text text-anchor="start" x="8" y="-791.876" font-family="Times,serif" font-size="14.00">destroy</text>
<text text-anchor="start" x="8" y="-775.076" font-family="Times,serif" font-size="14.00">edit</text>
<text text-anchor="start" x="8" y="-758.276" font-family="Times,serif" font-size="14.00">index</text>
<text text-anchor="start" x="8" y="-741.476" font-family="Times,serif" font-size="14.00">new</text>
<text text-anchor="start" x="8" y="-724.676" font-family="Times,serif" font-size="14.00">show</text>
<text text-anchor="start" x="8" y="-707.876" font-family="Times,serif" font-size="14.00">update</text>
<polyline fill="none" stroke="black" points="-5.68434e-14,-701.076 209.122,-701.076 "/>
<polyline fill="none" stroke="black" points="-5.68434e-14,-677.076 209.122,-677.076 "/>
<text text-anchor="start" x="8" y="-659.076" font-family="Times,serif" font-size="14.00">_layout</text>
<text text-anchor="start" x="8" y="-642.276" font-family="Times,serif" font-size="14.00">sort_direction</text>
<text text-anchor="start" x="8" y="-625.476" font-family="Times,serif" font-size="14.00">sort_field</text>
</g>
<!-- ApplicationController -->
<g id="node3" class="node"><title>ApplicationController</title>
<path fill="none" stroke="black" d="M355.072,-588.3C355.072,-588.3 533.707,-588.3 533.707,-588.3 539.707,-588.3 545.707,-594.3 545.707,-600.3 545.707,-600.3 545.707,-725.1 545.707,-725.1 545.707,-731.1 539.707,-737.1 533.707,-737.1 533.707,-737.1 355.072,-737.1 355.072,-737.1 349.072,-737.1 343.072,-731.1 343.072,-725.1 343.072,-725.1 343.072,-600.3 343.072,-600.3 343.072,-594.3 349.072,-588.3 355.072,-588.3"/>
<text text-anchor="middle" x="444.39" y="-719.1" font-family="Times,serif" font-size="14.00">ApplicationController</text>
<polyline fill="none" stroke="black" points="343.072,-712.3 545.707,-712.3 "/>
<text text-anchor="start" x="351.072" y="-694.3" font-family="Times,serif" font-size="14.00">_one_time_conditions_valid_68?</text>
<text text-anchor="start" x="351.072" y="-677.5" font-family="Times,serif" font-size="14.00">_one_time_conditions_valid_70?</text>
<text text-anchor="start" x="351.072" y="-660.7" font-family="Times,serif" font-size="14.00">after_sign_in_path_for</text>
<polyline fill="none" stroke="black" points="343.072,-653.9 545.707,-653.9 "/>
<polyline fill="none" stroke="black" points="343.072,-629.9 545.707,-629.9 "/>
<text text-anchor="start" x="351.072" y="-611.9" font-family="Times,serif" font-size="14.00">_layout</text>
<text text-anchor="start" x="351.072" y="-595.1" font-family="Times,serif" font-size="14.00">handle_error</text>
</g>
<!-- ApplicationController&#45;&gt;AgreementsController -->
<g id="edge1" class="edge"><title>ApplicationController&#45;&gt;AgreementsController</title>
<path fill="none" stroke="black" d="M342.89,-689.335C300.743,-700.395 251.854,-713.224 209.365,-724.374"/>
</g>
<!-- ClientsController -->
<g id="node4" class="node"><title>ClientsController</title>
<path fill="none" stroke="black" d="M361.241,-92.4056C361.241,-92.4056 546.876,-92.4056 546.876,-92.4056 552.876,-92.4056 558.876,-98.4056 558.876,-104.406 558.876,-104.406 558.876,-313.206 558.876,-313.206 558.876,-319.206 552.876,-325.206 546.876,-325.206 546.876,-325.206 361.241,-325.206 361.241,-325.206 355.241,-325.206 349.241,-319.206 349.241,-313.206 349.241,-313.206 349.241,-104.406 349.241,-104.406 349.241,-98.4056 355.241,-92.4056 361.241,-92.4056"/>
<text text-anchor="middle" x="454.058" y="-307.206" font-family="Times,serif" font-size="14.00">ClientsController</text>
<polyline fill="none" stroke="black" points="349.241,-300.406 558.876,-300.406 "/>
<text text-anchor="start" x="357.241" y="-282.406" font-family="Times,serif" font-size="14.00">_callback_before_161</text>
<text text-anchor="start" x="357.241" y="-265.606" font-family="Times,serif" font-size="14.00">_one_time_conditions_valid_162?</text>
<text text-anchor="start" x="357.241" y="-248.806" font-family="Times,serif" font-size="14.00">create</text>
<text text-anchor="start" x="357.241" y="-232.006" font-family="Times,serif" font-size="14.00">destroy</text>
<text text-anchor="start" x="357.241" y="-215.206" font-family="Times,serif" font-size="14.00">edit</text>
<text text-anchor="start" x="357.241" y="-198.406" font-family="Times,serif" font-size="14.00">index</text>
<text text-anchor="start" x="357.241" y="-181.606" font-family="Times,serif" font-size="14.00">new</text>
<text text-anchor="start" x="357.241" y="-164.806" font-family="Times,serif" font-size="14.00">show</text>
<text text-anchor="start" x="357.241" y="-148.006" font-family="Times,serif" font-size="14.00">update</text>
<polyline fill="none" stroke="black" points="349.241,-141.206 558.876,-141.206 "/>
<polyline fill="none" stroke="black" points="349.241,-117.206 558.876,-117.206 "/>
<text text-anchor="start" x="357.241" y="-99.2056" font-family="Times,serif" font-size="14.00">_layout</text>
</g>
<!-- ApplicationController&#45;&gt;ClientsController -->
<g id="edge2" class="edge"><title>ApplicationController&#45;&gt;ClientsController</title>
<path fill="none" stroke="black" d="M445.976,-588.257C447.494,-516.956 449.809,-408.277 451.573,-325.474"/>
</g>
<!-- FileImportsController -->
<g id="node5" class="node"><title>FileImportsController</title>
<path fill="none" stroke="black" d="M521.73,-1000.04C521.73,-1000.04 636.606,-1000.04 636.606,-1000.04 642.606,-1000.04 648.606,-1006.04 648.606,-1012.04 648.606,-1012.04 648.606,-1103.24 648.606,-1103.24 648.606,-1109.24 642.606,-1115.24 636.606,-1115.24 636.606,-1115.24 521.73,-1115.24 521.73,-1115.24 515.73,-1115.24 509.73,-1109.24 509.73,-1103.24 509.73,-1103.24 509.73,-1012.04 509.73,-1012.04 509.73,-1006.04 515.73,-1000.04 521.73,-1000.04"/>
<text text-anchor="middle" x="579.168" y="-1097.24" font-family="Times,serif" font-size="14.00">FileImportsController</text>
<polyline fill="none" stroke="black" points="509.73,-1090.44 648.606,-1090.44 "/>
<text text-anchor="start" x="517.73" y="-1072.44" font-family="Times,serif" font-size="14.00">index</text>
<text text-anchor="start" x="517.73" y="-1055.64" font-family="Times,serif" font-size="14.00">show</text>
<polyline fill="none" stroke="black" points="509.73,-1048.84 648.606,-1048.84 "/>
<polyline fill="none" stroke="black" points="509.73,-1024.84 648.606,-1024.84 "/>
<text text-anchor="start" x="517.73" y="-1006.84" font-family="Times,serif" font-size="14.00">_layout</text>
</g>
<!-- ApplicationController&#45;&gt;FileImportsController -->
<g id="edge3" class="edge"><title>ApplicationController&#45;&gt;FileImportsController</title>
<path fill="none" stroke="black" d="M469.899,-737.449C495.923,-813.706 535.751,-930.415 559.453,-999.867"/>
</g>
<!-- PricesController -->
<g id="node6" class="node"><title>PricesController</title>
<path fill="none" stroke="black" d="M831.885,-971.021C831.885,-971.021 915.643,-971.021 915.643,-971.021 921.643,-971.021 927.643,-977.021 927.643,-983.021 927.643,-983.021 927.643,-1158.22 927.643,-1158.22 927.643,-1164.22 921.643,-1170.22 915.643,-1170.22 915.643,-1170.22 831.885,-1170.22 831.885,-1170.22 825.885,-1170.22 819.885,-1164.22 819.885,-1158.22 819.885,-1158.22 819.885,-983.021 819.885,-983.021 819.885,-977.021 825.885,-971.021 831.885,-971.021"/>
<text text-anchor="middle" x="873.764" y="-1152.22" font-family="Times,serif" font-size="14.00">PricesController</text>
<polyline fill="none" stroke="black" points="819.885,-1145.42 927.643,-1145.42 "/>
<text text-anchor="start" x="827.885" y="-1127.42" font-family="Times,serif" font-size="14.00">create</text>
<text text-anchor="start" x="827.885" y="-1110.62" font-family="Times,serif" font-size="14.00">destroy</text>
<text text-anchor="start" x="827.885" y="-1093.82" font-family="Times,serif" font-size="14.00">edit</text>
<text text-anchor="start" x="827.885" y="-1077.02" font-family="Times,serif" font-size="14.00">index</text>
<text text-anchor="start" x="827.885" y="-1060.22" font-family="Times,serif" font-size="14.00">new</text>
<text text-anchor="start" x="827.885" y="-1043.42" font-family="Times,serif" font-size="14.00">show</text>
<text text-anchor="start" x="827.885" y="-1026.62" font-family="Times,serif" font-size="14.00">update</text>
<polyline fill="none" stroke="black" points="819.885,-1019.82 927.643,-1019.82 "/>
<polyline fill="none" stroke="black" points="819.885,-995.821 927.643,-995.821 "/>
<text text-anchor="start" x="827.885" y="-977.821" font-family="Times,serif" font-size="14.00">_layout</text>
</g>
<!-- ApplicationController&#45;&gt;PricesController -->
<g id="edge4" class="edge"><title>ApplicationController&#45;&gt;PricesController</title>
<path fill="none" stroke="black" d="M511.197,-737.163C556.56,-786.618 618.667,-852.216 676.891,-906.669 723.347,-950.115 779.332,-996.181 819.706,-1028.38"/>
</g>
<!-- ProductAttributesController -->
<g id="node7" class="node"><title>ProductAttributesController</title>
<path fill="none" stroke="black" d="M275.314,-967.885C275.314,-967.885 424.404,-967.885 424.404,-967.885 430.404,-967.885 436.404,-973.885 436.404,-979.885 436.404,-979.885 436.404,-1054.29 436.404,-1054.29 436.404,-1060.29 430.404,-1066.29 424.404,-1066.29 424.404,-1066.29 275.314,-1066.29 275.314,-1066.29 269.314,-1066.29 263.314,-1060.29 263.314,-1054.29 263.314,-1054.29 263.314,-979.885 263.314,-979.885 263.314,-973.885 269.314,-967.885 275.314,-967.885"/>
<text text-anchor="middle" x="349.859" y="-1048.29" font-family="Times,serif" font-size="14.00">ProductAttributesController</text>
<polyline fill="none" stroke="black" points="263.314,-1041.49 436.404,-1041.49 "/>
<text text-anchor="start" x="271.314" y="-1023.49" font-family="Times,serif" font-size="14.00">new</text>
<polyline fill="none" stroke="black" points="263.314,-1016.69 436.404,-1016.69 "/>
<polyline fill="none" stroke="black" points="263.314,-992.685 436.404,-992.685 "/>
<text text-anchor="start" x="271.314" y="-974.685" font-family="Times,serif" font-size="14.00">_layout</text>
</g>
<!-- ApplicationController&#45;&gt;ProductAttributesController -->
<g id="edge5" class="edge"><title>ApplicationController&#45;&gt;ProductAttributesController</title>
<path fill="none" stroke="black" d="M424.458,-737.423C405.959,-806.772 378.95,-908.026 363.013,-967.773"/>
</g>
<!-- ProductsController -->
<g id="node8" class="node"><title>ProductsController</title>
<path fill="none" stroke="black" d="M17.1154,-0.5C17.1154,-0.5 202.75,-0.5 202.75,-0.5 208.75,-0.5 214.75,-6.5 214.75,-12.5 214.75,-12.5 214.75,-355.7 214.75,-355.7 214.75,-361.7 208.75,-367.7 202.75,-367.7 202.75,-367.7 17.1154,-367.7 17.1154,-367.7 11.1154,-367.7 5.11536,-361.7 5.11536,-355.7 5.11536,-355.7 5.11536,-12.5 5.11536,-12.5 5.11536,-6.5 11.1154,-0.5 17.1154,-0.5"/>
<text text-anchor="middle" x="109.933" y="-349.7" font-family="Times,serif" font-size="14.00">ProductsController</text>
<polyline fill="none" stroke="black" points="5.11536,-342.9 214.75,-342.9 "/>
<text text-anchor="start" x="13.1154" y="-324.9" font-family="Times,serif" font-size="14.00">_callback_before_233</text>
<text text-anchor="start" x="13.1154" y="-308.1" font-family="Times,serif" font-size="14.00">_one_time_conditions_valid_234?</text>
<text text-anchor="start" x="13.1154" y="-291.3" font-family="Times,serif" font-size="14.00">_one_time_conditions_valid_238?</text>
<text text-anchor="start" x="13.1154" y="-274.5" font-family="Times,serif" font-size="14.00">_one_time_conditions_valid_241?</text>
<text text-anchor="start" x="13.1154" y="-257.7" font-family="Times,serif" font-size="14.00">create</text>
<text text-anchor="start" x="13.1154" y="-240.9" font-family="Times,serif" font-size="14.00">destroy</text>
<text text-anchor="start" x="13.1154" y="-224.1" font-family="Times,serif" font-size="14.00">details</text>
<text text-anchor="start" x="13.1154" y="-207.3" font-family="Times,serif" font-size="14.00">edit</text>
<text text-anchor="start" x="13.1154" y="-190.5" font-family="Times,serif" font-size="14.00">index</text>
<text text-anchor="start" x="13.1154" y="-173.7" font-family="Times,serif" font-size="14.00">new</text>
<text text-anchor="start" x="13.1154" y="-156.9" font-family="Times,serif" font-size="14.00">review</text>
<text text-anchor="start" x="13.1154" y="-140.1" font-family="Times,serif" font-size="14.00">search</text>
<text text-anchor="start" x="13.1154" y="-123.3" font-family="Times,serif" font-size="14.00">show</text>
<text text-anchor="start" x="13.1154" y="-106.5" font-family="Times,serif" font-size="14.00">update</text>
<text text-anchor="start" x="13.1154" y="-89.7" font-family="Times,serif" font-size="14.00">upload</text>
<text text-anchor="start" x="13.1154" y="-72.9" font-family="Times,serif" font-size="14.00">upload_form</text>
<polyline fill="none" stroke="black" points="5.11536,-66.1 214.75,-66.1 "/>
<polyline fill="none" stroke="black" points="5.11536,-42.1 214.75,-42.1 "/>
<text text-anchor="start" x="13.1154" y="-24.1" font-family="Times,serif" font-size="14.00">_layout</text>
<text text-anchor="start" x="13.1154" y="-7.3" font-family="Times,serif" font-size="14.00">prepare_upload_form</text>
</g>
<!-- ApplicationController&#45;&gt;ProductsController -->
<g id="edge6" class="edge"><title>ApplicationController&#45;&gt;ProductsController</title>
<path fill="none" stroke="black" d="M392.315,-588.181C345.037,-520.528 273.889,-418.717 214.839,-334.218"/>
</g>
<!-- PurchasingSystemsController -->
<g id="node9" class="node"><title>PurchasingSystemsController</title>
<path fill="none" stroke="black" d="M818.667,-442.557C818.667,-442.557 977.101,-442.557 977.101,-442.557 983.101,-442.557 989.101,-448.557 989.101,-454.557 989.101,-454.557 989.101,-629.757 989.101,-629.757 989.101,-635.757 983.101,-641.757 977.101,-641.757 977.101,-641.757 818.667,-641.757 818.667,-641.757 812.667,-641.757 806.667,-635.757 806.667,-629.757 806.667,-629.757 806.667,-454.557 806.667,-454.557 806.667,-448.557 812.667,-442.557 818.667,-442.557"/>
<text text-anchor="middle" x="897.884" y="-623.757" font-family="Times,serif" font-size="14.00">PurchasingSystemsController</text>
<polyline fill="none" stroke="black" points="806.667,-616.957 989.101,-616.957 "/>
<text text-anchor="start" x="814.667" y="-598.957" font-family="Times,serif" font-size="14.00">create</text>
<text text-anchor="start" x="814.667" y="-582.157" font-family="Times,serif" font-size="14.00">destroy</text>
<text text-anchor="start" x="814.667" y="-565.357" font-family="Times,serif" font-size="14.00">edit</text>
<text text-anchor="start" x="814.667" y="-548.557" font-family="Times,serif" font-size="14.00">index</text>
<text text-anchor="start" x="814.667" y="-531.757" font-family="Times,serif" font-size="14.00">new</text>
<text text-anchor="start" x="814.667" y="-514.957" font-family="Times,serif" font-size="14.00">show</text>
<text text-anchor="start" x="814.667" y="-498.157" font-family="Times,serif" font-size="14.00">update</text>
<polyline fill="none" stroke="black" points="806.667,-491.357 989.101,-491.357 "/>
<polyline fill="none" stroke="black" points="806.667,-467.357 989.101,-467.357 "/>
<text text-anchor="start" x="814.667" y="-449.357" font-family="Times,serif" font-size="14.00">_layout</text>
</g>
<!-- ApplicationController&#45;&gt;PurchasingSystemsController -->
<g id="edge7" class="edge"><title>ApplicationController&#45;&gt;PurchasingSystemsController</title>
<path fill="none" stroke="black" d="M545.88,-635.723C623.948,-614.972 730.881,-586.548 806.342,-566.489"/>
</g>
<!-- SearchAuditsController -->
<g id="node10" class="node"><title>SearchAuditsController</title>
<path fill="none" stroke="black" d="M44.9533,-403.843C44.9533,-403.843 230.588,-403.843 230.588,-403.843 236.588,-403.843 242.588,-409.843 242.588,-415.843 242.588,-415.843 242.588,-540.643 242.588,-540.643 242.588,-546.643 236.588,-552.643 230.588,-552.643 230.588,-552.643 44.9533,-552.643 44.9533,-552.643 38.9533,-552.643 32.9533,-546.643 32.9533,-540.643 32.9533,-540.643 32.9533,-415.843 32.9533,-415.843 32.9533,-409.843 38.9533,-403.843 44.9533,-403.843"/>
<text text-anchor="middle" x="137.771" y="-534.643" font-family="Times,serif" font-size="14.00">SearchAuditsController</text>
<polyline fill="none" stroke="black" points="32.9533,-527.843 242.588,-527.843 "/>
<text text-anchor="start" x="40.9533" y="-509.843" font-family="Times,serif" font-size="14.00">_callback_before_257</text>
<text text-anchor="start" x="40.9533" y="-493.043" font-family="Times,serif" font-size="14.00">_one_time_conditions_valid_258?</text>
<text text-anchor="start" x="40.9533" y="-476.243" font-family="Times,serif" font-size="14.00">index</text>
<text text-anchor="start" x="40.9533" y="-459.443" font-family="Times,serif" font-size="14.00">show</text>
<polyline fill="none" stroke="black" points="32.9533,-452.643 242.588,-452.643 "/>
<polyline fill="none" stroke="black" points="32.9533,-428.643 242.588,-428.643 "/>
<text text-anchor="start" x="40.9533" y="-410.643" font-family="Times,serif" font-size="14.00">_layout</text>
</g>
<!-- ApplicationController&#45;&gt;SearchAuditsController -->
<g id="edge8" class="edge"><title>ApplicationController&#45;&gt;SearchAuditsController</title>
<path fill="none" stroke="black" d="M342.716,-601.535C310.64,-582.238 275.15,-560.888 242.843,-541.452"/>
</g>
<!-- SearchController -->
<g id="node11" class="node"><title>SearchController</title>
<path fill="none" stroke="black" d="M537.212,-356.508C537.212,-356.508 722.847,-356.508 722.847,-356.508 728.847,-356.508 734.847,-362.508 734.847,-368.508 734.847,-368.508 734.847,-543.708 734.847,-543.708 734.847,-549.708 728.847,-555.708 722.847,-555.708 722.847,-555.708 537.212,-555.708 537.212,-555.708 531.212,-555.708 525.212,-549.708 525.212,-543.708 525.212,-543.708 525.212,-368.508 525.212,-368.508 525.212,-362.508 531.212,-356.508 537.212,-356.508"/>
<text text-anchor="middle" x="630.029" y="-537.708" font-family="Times,serif" font-size="14.00">SearchController</text>
<polyline fill="none" stroke="black" points="525.212,-530.908 734.847,-530.908 "/>
<text text-anchor="start" x="533.212" y="-512.908" font-family="Times,serif" font-size="14.00">_one_time_conditions_valid_260?</text>
<text text-anchor="start" x="533.212" y="-496.108" font-family="Times,serif" font-size="14.00">search</text>
<polyline fill="none" stroke="black" points="525.212,-489.308 734.847,-489.308 "/>
<polyline fill="none" stroke="black" points="525.212,-465.308 734.847,-465.308 "/>
<text text-anchor="start" x="533.212" y="-447.308" font-family="Times,serif" font-size="14.00">_layout</text>
<text text-anchor="start" x="533.212" y="-430.508" font-family="Times,serif" font-size="14.00">check_xml</text>
<text text-anchor="start" x="533.212" y="-413.708" font-family="Times,serif" font-size="14.00">create_audit_record</text>
<text text-anchor="start" x="533.212" y="-396.908" font-family="Times,serif" font-size="14.00">normalize_xml</text>
<text text-anchor="start" x="533.212" y="-380.108" font-family="Times,serif" font-size="14.00">render_500</text>
<text text-anchor="start" x="533.212" y="-363.308" font-family="Times,serif" font-size="14.00">render_template</text>
</g>
<!-- ApplicationController&#45;&gt;SearchController -->
<g id="edge9" class="edge"><title>ApplicationController&#45;&gt;SearchController</title>
<path fill="none" stroke="black" d="M511.41,-588.115C520.861,-577.598 530.699,-566.649 540.489,-555.754"/>
</g>
<!-- SuppliersController -->
<g id="node12" class="node"><title>SuppliersController</title>
<path fill="none" stroke="black" d="M740.511,-71.6449C740.511,-71.6449 926.146,-71.6449 926.146,-71.6449 932.146,-71.6449 938.146,-77.6449 938.146,-83.6449 938.146,-83.6449 938.146,-292.445 938.146,-292.445 938.146,-298.445 932.146,-304.445 926.146,-304.445 926.146,-304.445 740.511,-304.445 740.511,-304.445 734.511,-304.445 728.511,-298.445 728.511,-292.445 728.511,-292.445 728.511,-83.6449 728.511,-83.6449 728.511,-77.6449 734.511,-71.6449 740.511,-71.6449"/>
<text text-anchor="middle" x="833.329" y="-286.445" font-family="Times,serif" font-size="14.00">SuppliersController</text>
<polyline fill="none" stroke="black" points="728.511,-279.645 938.146,-279.645 "/>
<text text-anchor="start" x="736.511" y="-261.645" font-family="Times,serif" font-size="14.00">_callback_before_303</text>
<text text-anchor="start" x="736.511" y="-244.845" font-family="Times,serif" font-size="14.00">_one_time_conditions_valid_304?</text>
<text text-anchor="start" x="736.511" y="-228.045" font-family="Times,serif" font-size="14.00">create</text>
<text text-anchor="start" x="736.511" y="-211.245" font-family="Times,serif" font-size="14.00">destroy</text>
<text text-anchor="start" x="736.511" y="-194.445" font-family="Times,serif" font-size="14.00">edit</text>
<text text-anchor="start" x="736.511" y="-177.645" font-family="Times,serif" font-size="14.00">index</text>
<text text-anchor="start" x="736.511" y="-160.845" font-family="Times,serif" font-size="14.00">new</text>
<text text-anchor="start" x="736.511" y="-144.045" font-family="Times,serif" font-size="14.00">show</text>
<text text-anchor="start" x="736.511" y="-127.245" font-family="Times,serif" font-size="14.00">update</text>
<polyline fill="none" stroke="black" points="728.511,-120.445 938.146,-120.445 "/>
<polyline fill="none" stroke="black" points="728.511,-96.4449 938.146,-96.4449 "/>
<text text-anchor="start" x="736.511" y="-78.4449" font-family="Times,serif" font-size="14.00">_layout</text>
</g>
<!-- ApplicationController&#45;&gt;SuppliersController -->
<g id="edge10" class="edge"><title>ApplicationController&#45;&gt;SuppliersController</title>
<path fill="none" stroke="black" d="M446.366,-588.111C451.744,-520.376 469.008,-421.001 522.012,-353.308 529.286,-344.018 640.819,-285.924 728.329,-241.211"/>
</g>
<!-- SystemVersionsController -->
<g id="node13" class="node"><title>SystemVersionsController</title>
<path fill="none" stroke="black" d="M13.1948,-975.045C13.1948,-975.045 152.188,-975.045 152.188,-975.045 158.188,-975.045 164.188,-981.045 164.188,-987.045 164.188,-987.045 164.188,-1162.24 164.188,-1162.24 164.188,-1168.24 158.188,-1174.24 152.188,-1174.24 152.188,-1174.24 13.1948,-1174.24 13.1948,-1174.24 7.19478,-1174.24 1.19478,-1168.24 1.19478,-1162.24 1.19478,-1162.24 1.19478,-987.045 1.19478,-987.045 1.19478,-981.045 7.19478,-975.045 13.1948,-975.045"/>
<text text-anchor="middle" x="82.6914" y="-1156.24" font-family="Times,serif" font-size="14.00">SystemVersionsController</text>
<polyline fill="none" stroke="black" points="1.19478,-1149.44 164.188,-1149.44 "/>
<text text-anchor="start" x="9.19478" y="-1131.44" font-family="Times,serif" font-size="14.00">create</text>
<text text-anchor="start" x="9.19478" y="-1114.64" font-family="Times,serif" font-size="14.00">destroy</text>
<text text-anchor="start" x="9.19478" y="-1097.84" font-family="Times,serif" font-size="14.00">edit</text>
<text text-anchor="start" x="9.19478" y="-1081.04" font-family="Times,serif" font-size="14.00">index</text>
<text text-anchor="start" x="9.19478" y="-1064.24" font-family="Times,serif" font-size="14.00">new</text>
<text text-anchor="start" x="9.19478" y="-1047.44" font-family="Times,serif" font-size="14.00">show</text>
<text text-anchor="start" x="9.19478" y="-1030.64" font-family="Times,serif" font-size="14.00">update</text>
<polyline fill="none" stroke="black" points="1.19478,-1023.84 164.188,-1023.84 "/>
<polyline fill="none" stroke="black" points="1.19478,-999.845 164.188,-999.845 "/>
<text text-anchor="start" x="9.19478" y="-981.845" font-family="Times,serif" font-size="14.00">_layout</text>
</g>
<!-- ApplicationController&#45;&gt;SystemVersionsController -->
<g id="edge11" class="edge"><title>ApplicationController&#45;&gt;SystemVersionsController</title>
<path fill="none" stroke="black" d="M378.889,-737.3C318.732,-805.814 229.35,-907.612 164.517,-981.453"/>
</g>
<!-- UsersController -->
<g id="node14" class="node"><title>UsersController</title>
<path fill="none" stroke="black" d="M692.091,-670.669C692.091,-670.669 877.726,-670.669 877.726,-670.669 883.726,-670.669 889.726,-676.669 889.726,-682.669 889.726,-682.669 889.726,-891.469 889.726,-891.469 889.726,-897.469 883.726,-903.469 877.726,-903.469 877.726,-903.469 692.091,-903.469 692.091,-903.469 686.091,-903.469 680.091,-897.469 680.091,-891.469 680.091,-891.469 680.091,-682.669 680.091,-682.669 680.091,-676.669 686.091,-670.669 692.091,-670.669"/>
<text text-anchor="middle" x="784.908" y="-885.469" font-family="Times,serif" font-size="14.00">UsersController</text>
<polyline fill="none" stroke="black" points="680.091,-878.669 889.726,-878.669 "/>
<text text-anchor="start" x="688.091" y="-860.669" font-family="Times,serif" font-size="14.00">_callback_before_307</text>
<text text-anchor="start" x="688.091" y="-843.869" font-family="Times,serif" font-size="14.00">_one_time_conditions_valid_308?</text>
<text text-anchor="start" x="688.091" y="-827.069" font-family="Times,serif" font-size="14.00">create</text>
<text text-anchor="start" x="688.091" y="-810.269" font-family="Times,serif" font-size="14.00">destroy</text>
<text text-anchor="start" x="688.091" y="-793.469" font-family="Times,serif" font-size="14.00">edit</text>
<text text-anchor="start" x="688.091" y="-776.669" font-family="Times,serif" font-size="14.00">index</text>
<text text-anchor="start" x="688.091" y="-759.869" font-family="Times,serif" font-size="14.00">new</text>
<text text-anchor="start" x="688.091" y="-743.069" font-family="Times,serif" font-size="14.00">show</text>
<text text-anchor="start" x="688.091" y="-726.269" font-family="Times,serif" font-size="14.00">update</text>
<polyline fill="none" stroke="black" points="680.091,-719.469 889.726,-719.469 "/>
<polyline fill="none" stroke="black" points="680.091,-695.469 889.726,-695.469 "/>
<text text-anchor="start" x="688.091" y="-677.469" font-family="Times,serif" font-size="14.00">_layout</text>
</g>
<!-- ApplicationController&#45;&gt;UsersController -->
<g id="edge12" class="edge"><title>ApplicationController&#45;&gt;UsersController</title>
<path fill="none" stroke="black" d="M546.095,-699.846C588.328,-715.271 637.316,-733.163 679.892,-748.713"/>
</g>
</g>
</svg>
