<?xml version="1.0" encoding="UTF-8" standalone="no"?>
<!DOCTYPE svg PUBLIC "-//W3C//DTD SVG 1.1//EN"
 "http://www.w3.org/Graphics/SVG/1.1/DTD/svg11.dtd">
<!-- Generated by graphviz version 2.30.1 (20130403.1333)
 -->
<!-- Title: models_diagram Pages: 1 -->
<svg width="1050pt" height="310pt"
 viewBox="0.00 0.00 1050.00 310.00" xmlns="http://www.w3.org/2000/svg" xmlns:xlink="http://www.w3.org/1999/xlink">
<g id="graph0" class="graph" transform="scale(1 1) rotate(0) translate(4 306)">
<title>models_diagram</title>
<polygon fill="white" stroke="white" points="-4,5 -4,-306 1047,-306 1047,5 -4,5"/>
<!-- _diagram_info -->
<g id="node1" class="node"><title>_diagram_info</title>
<text text-anchor="start" x="7.31226" y="-285" font-family="Times,serif" font-size="13.00">Models diagram</text>
<text text-anchor="start" x="7.31226" y="-269.4" font-family="Times,serif" font-size="13.00">Date: May 17 2013 &#45; 11:27</text>
<text text-anchor="start" x="7.31226" y="-253.8" font-family="Times,serif" font-size="13.00">Migration version: 20130505091409</text>
<text text-anchor="start" x="7.31226" y="-238.2" font-family="Times,serif" font-size="13.00">Generated by RailRoady 1.1.0</text>
<text text-anchor="start" x="7.31226" y="-222.6" font-family="Times,serif" font-size="13.00">http://railroady.prestonlee.com</text>
</g>
<!-- Ability -->
<g id="node2" class="node"><title>Ability</title>
<polygon fill="none" stroke="black" points="280.255,-277 225.745,-277 225.745,-241 280.255,-241 280.255,-277"/>
<text text-anchor="middle" x="253" y="-253.4" font-family="Times,serif" font-size="14.00">Ability</text>
</g>
<!-- Administratable -->
<g id="node3" class="node"><title>Administratable</title>
<polygon fill="none" stroke="black" stroke-dasharray="1,5" points="405.15,-277 298.85,-277 298.85,-241 405.15,-241 405.15,-277"/>
<text text-anchor="middle" x="352" y="-253.4" font-family="Times,serif" font-size="14.00">Administratable</text>
</g>
<!-- Agreement -->
<g id="node4" class="node"><title>Agreement</title>
<ellipse fill="none" stroke="black" cx="456" cy="-162" rx="53.4052" ry="18"/>
<text text-anchor="middle" x="456" y="-156.4" font-family="Times,serif" font-size="14.00">Agreement</text>
</g>
<!-- Product -->
<g id="node9" class="node"><title>Product</title>
<ellipse fill="none" stroke="black" cx="491" cy="-90" rx="41.1166" ry="18"/>
<text text-anchor="middle" x="491" y="-84.4" font-family="Times,serif" font-size="14.00">Product</text>
</g>
<!-- Agreement&#45;&gt;Product -->
<g id="edge1" class="edge"><title>Agreement&#45;&gt;Product</title>
<path fill="none" stroke="#09e824" d="M468.999,-135.002C471.914,-129.173 475.007,-122.987 477.924,-117.152"/>
<polygon fill="#09e824" stroke="#09e824" points="468.945,-135.111 460.448,-142.042 466.709,-139.583 464.473,-144.055 464.473,-144.055 464.473,-144.055 466.709,-139.583 468.497,-146.067 468.945,-135.111 468.945,-135.111"/>
<polygon fill="#09e824" stroke="#09e824" points="478.133,-116.733 486.63,-109.801 480.369,-112.261 482.605,-107.789 482.605,-107.789 482.605,-107.789 480.369,-112.261 478.581,-105.777 478.133,-116.733 478.133,-116.733"/>
</g>
<!-- Price -->
<g id="node8" class="node"><title>Price</title>
<ellipse fill="none" stroke="black" cx="456" cy="-18" rx="30.32" ry="18"/>
<text text-anchor="middle" x="456" y="-12.4" font-family="Times,serif" font-size="14.00">Price</text>
</g>
<!-- Agreement&#45;&gt;Price -->
<g id="edge2" class="edge"><title>Agreement&#45;&gt;Price</title>
<path fill="none" stroke="#616a65" d="M447.505,-136.371C444.867,-127.536 442.308,-117.428 441,-108 438.801,-92.1519 438.801,-87.8481 441,-72 442.215,-63.2458 444.508,-53.9046 446.942,-45.5413"/>
<ellipse fill="none" stroke="#616a65" cx="448.722" cy="-140.253" rx="4.00001" ry="4.00001"/>
<polygon fill="#616a65" stroke="#616a65" points="446.96,-45.4826 454.216,-37.2611 448.439,-40.7064 449.918,-35.9301 449.918,-35.9301 449.918,-35.9301 448.439,-40.7064 445.619,-34.599 446.96,-45.4826 446.96,-45.4826"/>
</g>
<!-- Client -->
<g id="node5" class="node"><title>Client</title>
<ellipse fill="none" stroke="black" cx="458" cy="-259" rx="34.4613" ry="18"/>
<text text-anchor="middle" x="458" y="-253.4" font-family="Times,serif" font-size="14.00">Client</text>
</g>
<!-- User -->
<g id="node14" class="node"><title>User</title>
<ellipse fill="none" stroke="black" cx="557" cy="-162" rx="28.9087" ry="18"/>
<text text-anchor="middle" x="557" y="-156.4" font-family="Times,serif" font-size="14.00">User</text>
</g>
<!-- Client&#45;&gt;User -->
<g id="edge3" class="edge"><title>Client&#45;&gt;User</title>
<path fill="none" stroke="#55f286" d="M479.95,-236.936C496.086,-221.453 517.952,-200.47 534.269,-184.813"/>
<ellipse fill="none" stroke="#55f286" cx="476.792" cy="-239.967" rx="4.00002" ry="4.00002"/>
<polygon fill="#55f286" stroke="#55f286" points="534.568,-184.525 544.899,-180.848 538.176,-181.063 541.784,-177.602 541.784,-177.602 541.784,-177.602 538.176,-181.063 538.668,-174.355 534.568,-184.525 534.568,-184.525"/>
</g>
<!-- Client&#45;&gt;Agreement -->
<g id="edge4" class="edge"><title>Client&#45;&gt;Agreement</title>
<path fill="none" stroke="#eecf24" d="M457.461,-232.414C457.19,-219.518 456.86,-203.862 456.583,-190.685"/>
<ellipse fill="none" stroke="#eecf24" cx="457.549" cy="-236.576" rx="4" ry="4"/>
<polygon fill="#eecf24" stroke="#eecf24" points="456.575,-190.312 460.864,-180.219 456.47,-185.313 456.365,-180.314 456.365,-180.314 456.365,-180.314 456.47,-185.313 451.866,-180.409 456.575,-190.312 456.575,-190.312"/>
</g>
<!-- ErronousRow -->
<g id="node6" class="node"><title>ErronousRow</title>
<ellipse fill="none" stroke="black" cx="670" cy="-162" rx="64.5234" ry="18"/>
<text text-anchor="middle" x="670" y="-156.4" font-family="Times,serif" font-size="14.00">ErronousRow</text>
</g>
<!-- FileImport -->
<g id="node7" class="node"><title>FileImport</title>
<ellipse fill="none" stroke="black" cx="670" cy="-259" rx="52.0149" ry="18"/>
<text text-anchor="middle" x="670" y="-253.4" font-family="Times,serif" font-size="14.00">FileImport</text>
</g>
<!-- FileImport&#45;&gt;ErronousRow -->
<g id="edge5" class="edge"><title>FileImport&#45;&gt;ErronousRow</title>
<path fill="none" stroke="#98797d" d="M670,-232.414C670,-219.518 670,-203.862 670,-190.685"/>
<ellipse fill="none" stroke="#98797d" cx="670" cy="-236.576" rx="4" ry="4"/>
<polygon fill="#98797d" stroke="#98797d" points="670,-190.314 674.5,-180.314 670,-185.314 670,-180.314 670,-180.314 670,-180.314 670,-185.314 665.5,-180.314 670,-190.314 670,-190.314"/>
</g>
<!-- Product&#45;&gt;Price -->
<g id="edge6" class="edge"><title>Product&#45;&gt;Price</title>
<path fill="none" stroke="#4bf7df" d="M478.857,-64.7144C475.651,-58.3016 472.179,-51.3577 468.932,-44.8648"/>
<ellipse fill="none" stroke="#4bf7df" cx="480.739" cy="-68.4772" rx="4.00002" ry="4.00002"/>
<polygon fill="#4bf7df" stroke="#4bf7df" points="468.867,-44.7333 468.419,-33.7765 466.631,-40.2611 464.395,-35.789 464.395,-35.789 464.395,-35.789 466.631,-40.2611 460.37,-37.8015 468.867,-44.7333 468.867,-44.7333"/>
</g>
<!-- PurchasingSystem -->
<g id="node10" class="node"><title>PurchasingSystem</title>
<ellipse fill="none" stroke="black" cx="823" cy="-259" rx="82.0832" ry="18"/>
<text text-anchor="middle" x="823" y="-253.4" font-family="Times,serif" font-size="14.00">PurchasingSystem</text>
</g>
<!-- SystemVersion -->
<g id="node13" class="node"><title>SystemVersion</title>
<ellipse fill="none" stroke="black" cx="823" cy="-162" rx="68.4674" ry="18"/>
<text text-anchor="middle" x="823" y="-156.4" font-family="Times,serif" font-size="14.00">SystemVersion</text>
</g>
<!-- PurchasingSystem&#45;&gt;SystemVersion -->
<g id="edge7" class="edge"><title>PurchasingSystem&#45;&gt;SystemVersion</title>
<path fill="none" stroke="#68a4af" d="M823,-232.414C823,-219.518 823,-203.862 823,-190.685"/>
<ellipse fill="none" stroke="#68a4af" cx="823" cy="-236.576" rx="4" ry="4"/>
<polygon fill="#68a4af" stroke="#68a4af" points="823,-190.314 827.5,-180.314 823,-185.314 823,-180.314 823,-180.314 823,-180.314 823,-185.314 818.5,-180.314 823,-190.314 823,-190.314"/>
</g>
<!-- SearchAudit -->
<g id="node11" class="node"><title>SearchAudit</title>
<ellipse fill="none" stroke="black" cx="983" cy="-259" rx="58.9618" ry="18"/>
<text text-anchor="middle" x="983" y="-253.4" font-family="Times,serif" font-size="14.00">SearchAudit</text>
</g>
<!-- Supplier -->
<g id="node12" class="node"><title>Supplier</title>
<ellipse fill="none" stroke="black" cx="556" cy="-259" rx="43.1445" ry="18"/>
<text text-anchor="middle" x="556" y="-253.4" font-family="Times,serif" font-size="14.00">Supplier</text>
</g>
<!-- Supplier&#45;&gt;User -->
<g id="edge8" class="edge"><title>Supplier&#45;&gt;User</title>
<path fill="none" stroke="#95e7cf" d="M556.269,-232.414C556.405,-219.518 556.57,-203.862 556.709,-190.685"/>
<ellipse fill="none" stroke="#95e7cf" cx="556.226" cy="-236.576" rx="4" ry="4"/>
<polygon fill="#95e7cf" stroke="#95e7cf" points="556.712,-190.313 561.317,-180.361 556.765,-185.314 556.818,-180.314 556.818,-180.314 556.818,-180.314 556.765,-185.314 552.318,-180.267 556.712,-190.313 556.712,-190.313"/>
</g>
<!-- Supplier&#45;&gt;Agreement -->
<g id="edge9" class="edge"><title>Supplier&#45;&gt;Agreement</title>
<path fill="none" stroke="#98cd08" d="M533.589,-236.71C517.891,-221.796 496.911,-201.865 480.725,-186.489"/>
<ellipse fill="none" stroke="#98cd08" cx="536.587" cy="-239.558" rx="4.00002" ry="4.00002"/>
<polygon fill="#98cd08" stroke="#98cd08" points="480.458,-186.235 476.308,-176.085 476.833,-182.792 473.208,-179.348 473.208,-179.348 473.208,-179.348 476.833,-182.792 470.109,-182.61 480.458,-186.235 480.458,-186.235"/>
</g>
</g>
</svg>
